<mxfile host="app.diagrams.net" modified="2022-02-28T22:51:59.033Z" agent="5.0 (Windows NT 10.0; Win64; x64) AppleWebKit/537.36 (KHTML, like Gecko) Chrome/98.0.4758.102 Safari/537.36" etag="lPEVfB7uLYcYjJ259d4u" version="16.6.4" type="github">
  <diagram id="R2lEEEUBdFMjLlhIrx00" name="Page-1">
    <mxGraphModel dx="698" dy="607" grid="1" gridSize="10" guides="1" tooltips="1" connect="1" arrows="1" fold="1" page="1" pageScale="1" pageWidth="850" pageHeight="1100" math="0" shadow="0" extFonts="Permanent Marker^https://fonts.googleapis.com/css?family=Permanent+Marker">
      <root>
        <mxCell id="0" />
        <mxCell id="1" parent="0" />
        <mxCell id="2HUApi6teSIIeTgoB7w--2" value="rooms" style="whiteSpace=wrap;html=1;align=center;fillColor=#1ba1e2;fontColor=#ffffff;strokeColor=#006EAF;" vertex="1" parent="1">
          <mxGeometry x="110" y="290" width="60" height="40" as="geometry" />
        </mxCell>
        <mxCell id="2HUApi6teSIIeTgoB7w--4" value="receptionist" style="whiteSpace=wrap;html=1;align=center;fillColor=#1ba1e2;fontColor=#ffffff;strokeColor=#006EAF;" vertex="1" parent="1">
          <mxGeometry x="440" y="340" width="90" height="40" as="geometry" />
        </mxCell>
        <mxCell id="2HUApi6teSIIeTgoB7w--6" value="reservation" style="shape=ext;margin=3;double=1;whiteSpace=wrap;html=1;align=center;fillColor=#1ba1e2;fontColor=#ffffff;strokeColor=#006EAF;" vertex="1" parent="1">
          <mxGeometry x="270" y="530" width="100" height="40" as="geometry" />
        </mxCell>
        <mxCell id="2HUApi6teSIIeTgoB7w--7" value="client" style="whiteSpace=wrap;html=1;align=center;fillColor=#1ba1e2;fontColor=#ffffff;strokeColor=#006EAF;" vertex="1" parent="1">
          <mxGeometry x="500" y="130" width="90" height="40" as="geometry" />
        </mxCell>
        <mxCell id="2HUApi6teSIIeTgoB7w--10" value="id" style="ellipse;whiteSpace=wrap;html=1;align=center;fontStyle=4;fillColor=#647687;fontColor=#ffffff;strokeColor=#314354;" vertex="1" parent="1">
          <mxGeometry x="50" y="290" width="40" height="40" as="geometry" />
        </mxCell>
        <mxCell id="2HUApi6teSIIeTgoB7w--12" value="status" style="ellipse;whiteSpace=wrap;html=1;align=center;fillColor=#647687;fontColor=#ffffff;strokeColor=#314354;" vertex="1" parent="1">
          <mxGeometry x="90" y="240" width="60" height="40" as="geometry" />
        </mxCell>
        <mxCell id="2HUApi6teSIIeTgoB7w--13" value="roof" style="ellipse;whiteSpace=wrap;html=1;align=center;fillColor=#647687;fontColor=#ffffff;strokeColor=#314354;" vertex="1" parent="1">
          <mxGeometry x="160" y="240" width="60" height="40" as="geometry" />
        </mxCell>
        <mxCell id="2HUApi6teSIIeTgoB7w--15" value="id" style="ellipse;whiteSpace=wrap;html=1;align=center;fontStyle=4;fillColor=#647687;fontColor=#ffffff;strokeColor=#314354;" vertex="1" parent="1">
          <mxGeometry x="40" y="60" width="40" height="40" as="geometry" />
        </mxCell>
        <mxCell id="2HUApi6teSIIeTgoB7w--16" value="type" style="ellipse;whiteSpace=wrap;html=1;align=center;fillColor=#647687;fontColor=#ffffff;strokeColor=#314354;" vertex="1" parent="1">
          <mxGeometry x="90" y="50" width="60" height="40" as="geometry" />
        </mxCell>
        <mxCell id="2HUApi6teSIIeTgoB7w--17" value="cost_day" style="ellipse;whiteSpace=wrap;html=1;align=center;fillColor=#647687;fontColor=#ffffff;strokeColor=#314354;" vertex="1" parent="1">
          <mxGeometry x="160" y="50" width="60" height="40" as="geometry" />
        </mxCell>
        <mxCell id="2HUApi6teSIIeTgoB7w--18" value="room_type" style="shape=ext;margin=3;double=1;whiteSpace=wrap;html=1;align=center;fillColor=#1ba1e2;fontColor=#ffffff;strokeColor=#006EAF;" vertex="1" parent="1">
          <mxGeometry x="90" y="110" width="100" height="40" as="geometry" />
        </mxCell>
        <mxCell id="2HUApi6teSIIeTgoB7w--21" value="id" style="ellipse;whiteSpace=wrap;html=1;align=center;fontStyle=4;fillColor=#647687;fontColor=#ffffff;strokeColor=#314354;" vertex="1" parent="1">
          <mxGeometry x="190" y="480" width="40" height="40" as="geometry" />
        </mxCell>
        <mxCell id="2HUApi6teSIIeTgoB7w--22" value="id_room" style="ellipse;whiteSpace=wrap;html=1;align=center;fillColor=#647687;fontColor=#ffffff;strokeColor=#314354;" vertex="1" parent="1">
          <mxGeometry x="250" y="470" width="80" height="40" as="geometry" />
        </mxCell>
        <mxCell id="2HUApi6teSIIeTgoB7w--23" value="date_start" style="ellipse;whiteSpace=wrap;html=1;align=center;fillColor=#647687;fontColor=#ffffff;strokeColor=#314354;" vertex="1" parent="1">
          <mxGeometry x="360" y="480" width="80" height="40" as="geometry" />
        </mxCell>
        <mxCell id="2HUApi6teSIIeTgoB7w--24" value="date_end" style="ellipse;whiteSpace=wrap;html=1;align=center;fillColor=#647687;fontColor=#ffffff;strokeColor=#314354;" vertex="1" parent="1">
          <mxGeometry x="390" y="530" width="80" height="40" as="geometry" />
        </mxCell>
        <mxCell id="2HUApi6teSIIeTgoB7w--25" value="id_receptionist" style="ellipse;whiteSpace=wrap;html=1;align=center;fillColor=#647687;fontColor=#ffffff;strokeColor=#314354;" vertex="1" parent="1">
          <mxGeometry x="360" y="580" width="100" height="40" as="geometry" />
        </mxCell>
        <mxCell id="2HUApi6teSIIeTgoB7w--26" value="tc" style="ellipse;whiteSpace=wrap;html=1;align=center;fillColor=#647687;fontColor=#ffffff;strokeColor=#314354;" vertex="1" parent="1">
          <mxGeometry x="620" y="180" width="40" height="40" as="geometry" />
        </mxCell>
        <mxCell id="2HUApi6teSIIeTgoB7w--27" value="photos" style="ellipse;whiteSpace=wrap;html=1;align=center;fillColor=#647687;fontColor=#ffffff;strokeColor=#314354;" vertex="1" parent="1">
          <mxGeometry x="180" y="290" width="60" height="40" as="geometry" />
        </mxCell>
        <mxCell id="2HUApi6teSIIeTgoB7w--28" value="id" style="ellipse;whiteSpace=wrap;html=1;align=center;fontStyle=4;fillColor=#647687;fontColor=#ffffff;strokeColor=#314354;" vertex="1" parent="1">
          <mxGeometry x="400" y="290" width="40" height="40" as="geometry" />
        </mxCell>
        <mxCell id="2HUApi6teSIIeTgoB7w--29" value="id" style="ellipse;whiteSpace=wrap;html=1;align=center;fontStyle=4;fillColor=#647687;fontColor=#ffffff;strokeColor=#314354;" vertex="1" parent="1">
          <mxGeometry x="560" y="70" width="40" height="40" as="geometry" />
        </mxCell>
        <mxCell id="2HUApi6teSIIeTgoB7w--30" value="tc_validated" style="ellipse;whiteSpace=wrap;html=1;align=center;fillColor=#647687;fontColor=#ffffff;strokeColor=#314354;" vertex="1" parent="1">
          <mxGeometry x="620" y="130" width="90" height="40" as="geometry" />
        </mxCell>
        <mxCell id="2HUApi6teSIIeTgoB7w--31" value="paid" style="ellipse;whiteSpace=wrap;html=1;align=center;fillColor=#647687;fontColor=#ffffff;strokeColor=#314354;" vertex="1" parent="1">
          <mxGeometry x="190" y="530" width="50" height="40" as="geometry" />
        </mxCell>
        <mxCell id="2HUApi6teSIIeTgoB7w--32" value="discont_cupon" style="ellipse;whiteSpace=wrap;html=1;align=center;fillColor=#647687;fontColor=#ffffff;strokeColor=#314354;" vertex="1" parent="1">
          <mxGeometry x="620" y="80" width="90" height="40" as="geometry" />
        </mxCell>
        <mxCell id="2HUApi6teSIIeTgoB7w--33" value="name" style="ellipse;whiteSpace=wrap;html=1;align=center;fillColor=#647687;fontColor=#ffffff;strokeColor=#314354;" vertex="1" parent="1">
          <mxGeometry x="400" y="60" width="90" height="40" as="geometry" />
        </mxCell>
        <mxCell id="2HUApi6teSIIeTgoB7w--34" value="address" style="ellipse;whiteSpace=wrap;html=1;align=center;fillColor=#647687;fontColor=#ffffff;strokeColor=#314354;" vertex="1" parent="1">
          <mxGeometry x="400" y="100" width="90" height="40" as="geometry" />
        </mxCell>
        <mxCell id="2HUApi6teSIIeTgoB7w--35" value="phone" style="ellipse;whiteSpace=wrap;html=1;align=center;fillColor=#647687;fontColor=#ffffff;strokeColor=#314354;" vertex="1" parent="1">
          <mxGeometry x="400" y="140" width="90" height="40" as="geometry" />
        </mxCell>
        <mxCell id="2HUApi6teSIIeTgoB7w--36" value="email" style="ellipse;whiteSpace=wrap;html=1;align=center;fillColor=#647687;fontColor=#ffffff;strokeColor=#314354;" vertex="1" parent="1">
          <mxGeometry x="400" y="180" width="90" height="40" as="geometry" />
        </mxCell>
        <mxCell id="2HUApi6teSIIeTgoB7w--39" value="tickets" style="whiteSpace=wrap;html=1;align=center;fillColor=#1ba1e2;fontColor=#ffffff;strokeColor=#006EAF;" vertex="1" parent="1">
          <mxGeometry x="640" y="330" width="90" height="40" as="geometry" />
        </mxCell>
        <mxCell id="2HUApi6teSIIeTgoB7w--40" value="id" style="ellipse;whiteSpace=wrap;html=1;align=center;fontStyle=4;fillColor=#647687;fontColor=#ffffff;strokeColor=#314354;" vertex="1" parent="1">
          <mxGeometry x="600" y="280" width="40" height="40" as="geometry" />
        </mxCell>
        <mxCell id="2HUApi6teSIIeTgoB7w--41" value="extra_reservation" style="whiteSpace=wrap;html=1;align=center;fillColor=#1ba1e2;fontColor=#ffffff;strokeColor=#006EAF;" vertex="1" parent="1">
          <mxGeometry x="575" y="490" width="135" height="40" as="geometry" />
        </mxCell>
      </root>
    </mxGraphModel>
  </diagram>
</mxfile>
